<svg width="230" height="230" xmlns="http://www.w3.org/2000/svg" xmlns:xlink="http://www.w3.org/1999/xlink" overflow="hidden"><defs><clipPath id="clip0"><rect x="123" y="99" width="230" height="230"/></clipPath></defs><g clip-path="url(#clip0)" transform="translate(-123 -99)"><path d="M284.223 174.683C280.055 174.683 275.887 176.272 272.707 179.452L214.968 237.191 203.292 225.516C198.523 220.746 191.53 219.553 185.648 221.938L180.261 225.516 176.683 230.903C174.299 236.784 175.491 243.777 180.261 248.547L203.292 271.578C206.472 274.758 210.64 276.348 214.808 276.348L214.968 276.317 215.128 276.348C219.296 276.348 223.464 274.758 226.644 271.578L295.738 202.484C302.098 196.124 302.098 185.813 295.738 179.453L295.738 179.452C292.559 176.272 288.391 174.683 284.223 174.683ZM238 100C300.96 100 352 151.04 352 214 352 276.96 300.96 328 238 328 175.04 328 124 276.96 124 214 124 151.04 175.04 100 238 100Z" fill="#00B050" fill-rule="evenodd"/></g></svg>