<svg width="230" height="230" xmlns="http://www.w3.org/2000/svg" xmlns:xlink="http://www.w3.org/1999/xlink" overflow="hidden"><defs><clipPath id="clip0"><rect x="525" y="99" width="230" height="230"/></clipPath></defs><g clip-path="url(#clip0)" transform="translate(-525 -99)"><path d="M605.453 163.167C601.285 163.167 597.117 164.757 593.937 167.937L593.937 167.937C587.577 174.297 587.577 184.608 593.937 190.968L616.969 214 593.937 237.031C587.577 243.391 587.577 253.703 593.937 260.063L593.937 260.063C600.297 266.423 610.608 266.423 616.969 260.063L640 237.031 663.031 260.063C667.801 264.833 674.794 266.025 680.675 263.64L686.063 260.063 686.063 260.063 686.063 260.063 686.063 260.063 689.64 254.675C692.025 248.794 690.833 241.801 686.063 237.031L663.031 214 686.063 190.969C692.423 184.609 692.423 174.297 686.063 167.937L686.063 167.937C679.703 161.577 669.391 161.577 663.031 167.937L640 190.968 616.969 167.937C613.788 164.757 609.62 163.167 605.453 163.167ZM640 100C702.96 100 754 151.04 754 214 754 276.96 702.96 328 640 328 577.04 328 526 276.96 526 214 526 151.04 577.04 100 640 100Z" fill="#FF0000" fill-rule="evenodd"/></g></svg>