<svg width="230" height="230" xmlns="http://www.w3.org/2000/svg" xmlns:xlink="http://www.w3.org/1999/xlink" overflow="hidden"><defs><clipPath id="clip0"><rect x="927" y="99" width="230" height="230"/></clipPath></defs><g clip-path="url(#clip0)" transform="translate(-927 -99)"><path d="M1042 189.571C1033.01 189.571 1025.71 196.863 1025.71 205.857L1025.71 271C1025.71 279.994 1033.01 287.286 1042 287.286L1042 287.286C1050.99 287.286 1058.29 279.994 1058.29 271 1058.29 249.286 1058.29 227.571 1058.29 205.857 1058.29 196.863 1050.99 189.571 1042 189.571ZM1042 140.714C1033.01 140.714 1025.71 148.006 1025.71 157 1025.71 165.994 1033.01 173.286 1042 173.286 1050.99 173.286 1058.29 165.994 1058.29 157 1058.29 148.006 1050.99 140.714 1042 140.714ZM1042 100C1104.96 100 1156 151.04 1156 214 1156 276.96 1104.96 328 1042 328 979.04 328 928 276.96 928 214 928 151.04 979.04 100 1042 100Z" fill="#0070C0" fill-rule="evenodd"/></g></svg>